<svg width="1440" height="145" viewBox="0 0 1440 145" fill="none" xmlns="http://www.w3.org/2000/svg">
<path d="M1440 54.605H1413.3C1386.7 54.605 1333 54.605 1280 42.5712C1226.7 30.3114 1173 6.58281 1120 12.402C1066.7 18.4471 1013 54.605 960 69.6896C906.7 84.5483 853 78.8986 800 69.6896C746.7 60.8197 693 48.3904 640 51.6107C586.7 54.605 533 72.684 480 72.684C426.7 72.684 373 54.605 320 57.5993C266.7 60.8197 213 84.5483 160 78.7291C106.7 72.684 53 36.5261 27 18.4471L0 0.368164V145H26.7C53.2999 145 107 145 160 145C213.3 145 267 145 320 145C373.3 145 427 145 480 145C533.3 145 587 145 640 145C693.3 145 747 145 800 145C853.3 145 907 145 960 145C1013.3 145 1067 145 1120 145C1173.3 145 1227 145 1280 145C1333.3 145 1387 145 1413 145H1440V54.605Z" fill="white"/>
</svg>
