<svg width="240" height="256" viewBox="0 0 240 256" fill="none" xmlns="http://www.w3.org/2000/svg">
<g clip-path="url(#clip0)">
<path d="M121.986 256H117.974C107.883 256 99.6963 247.802 99.6963 237.698V233.965C99.6963 232.078 101.216 230.536 103.121 230.536H136.859C138.744 230.536 140.284 232.057 140.284 233.965V237.698C140.264 247.802 132.077 256 121.986 256Z" fill="#9B9B9B"/>
<g opacity="0.53">
<path opacity="0.53" d="M104.094 238.997V230.536H135.887V238.997C135.887 245.956 128.775 251.617 119.98 251.617C111.206 251.617 104.094 245.976 104.094 238.997Z" fill="#263238"/>
</g>
<path d="M239.878 250.907L135.988 240.011L120.932 238.651L104.174 240.173L0 250.907L0.243161 247.66L120.628 235.141L239.959 247.437L239.878 250.907Z" fill="#9B9B9B"/>
<path opacity="0.53" d="M239.919 248.959L136.089 238.063L121.033 236.683L104.276 238.205L0.162109 248.959L0.385007 245.712L120.729 233.193L240 245.469L239.919 248.959Z" fill="#263238"/>
<path d="M118.378 234.837C117.365 227.309 112.826 220.999 105.248 216.616C96.5749 211.605 84.275 209.434 69.7056 210.326C52.6843 211.381 32.8869 216.495 10.8808 225.503L9.66504 222.5C31.9953 213.35 52.1169 208.155 69.5029 207.08C84.7208 206.126 97.6488 208.46 106.869 213.796C111.104 216.251 114.528 219.295 117.041 222.866C119.493 226.335 121.013 230.211 121.58 234.37L118.378 234.837Z" fill="#FAECDE"/>
<path d="M121.803 235.344L118.561 235.304C118.662 227.614 114.994 220.451 107.922 214.628C100.222 208.298 88.9152 203.996 75.2171 202.17C59.3711 200.06 40.8503 201.237 20.1208 205.64L19.4521 202.474C40.5464 197.99 59.4521 196.813 75.6629 198.964C89.9689 200.871 101.843 205.416 110.009 212.132C117.73 218.504 121.924 226.762 121.803 235.344Z" fill="#FAECDE"/>
<path d="M118.379 234.675C117.447 206.411 92.0362 191.761 33.4141 185.735L33.7383 182.509C65.5924 185.796 87.8822 191.761 101.925 200.75C108.632 205.051 113.495 210.002 116.758 215.886C119.777 221.324 121.357 227.431 121.6 234.573L118.379 234.675Z" fill="#FAECDE"/>
<path d="M235.623 247.194L234.326 233.376C193.941 220.492 172.543 215.623 159.554 213.736C139.108 210.753 121.276 219.255 121.114 235.385L235.623 247.194Z" fill="#FAECDE"/>
<path d="M122.087 234.837L118.886 234.411C119.453 230.292 120.973 226.457 123.425 223.008C125.937 219.477 129.362 216.454 133.597 213.999C142.979 208.582 156.089 206.187 171.53 207.1C189.18 208.156 209.504 213.33 231.956 222.541L230.74 225.544C189.605 208.683 154.793 205.498 135.238 216.799C127.619 221.161 123.08 227.411 122.087 234.837Z" fill="#FAECDE"/>
<path d="M118.663 235.345C118.541 226.802 122.837 218.504 130.76 211.97C139.149 205.072 151.267 200.344 165.775 198.295C182.27 195.962 201.358 197.077 222.472 201.562L221.803 204.727C201.054 200.324 182.371 199.228 166.241 201.501C152.3 203.469 140.75 207.953 132.827 214.466C125.674 220.35 121.803 227.756 121.905 235.284L118.663 235.345Z" fill="#FAECDE"/>
<path d="M128.187 228.121C128.936 227.33 129.808 226.579 130.841 225.889C135.076 223.069 141.277 221.506 148.268 221.506C150.557 221.506 152.928 221.669 155.319 222.014C169.524 224.002 189.787 228.912 217.062 236.927L128.187 228.121Z" fill="#E7D4B9"/>
<path d="M4.84277 247.194L6.22069 232.91C46.6057 220.025 67.9228 215.622 80.9319 213.715C101.378 210.733 119.21 219.234 119.372 235.365L4.84277 247.194Z" fill="#FAECDE"/>
<path d="M122.088 234.675L118.846 234.573C119.089 227.269 120.548 221.04 123.304 215.561C126.424 209.312 131.146 204.138 137.731 199.715C152.199 189.976 175.583 184.254 209.16 182.205L209.362 185.431C176.374 187.439 153.537 192.979 139.535 202.393C128.106 210.063 122.574 220.33 122.088 234.675Z" fill="#FAECDE"/>
<path d="M120.344 232.382C121.377 227.127 124.862 223.758 127.861 221.77C132.968 218.361 140.202 216.495 148.267 216.495C150.82 216.495 153.434 216.677 156.068 217.042C172.644 219.376 200.708 226.477 234.67 236.825L235.136 243.622L120.344 232.382Z" fill="#F3E2D2"/>
<path d="M125.065 229.501C126.119 227.614 127.72 225.95 129.848 224.53C134.366 221.507 140.911 219.843 148.267 219.843C150.658 219.843 153.11 220.025 155.562 220.37C171.59 222.623 202.127 229.947 234.772 239.849V241.107L125.065 229.501Z" fill="#E7D4B9"/>
<path d="M5.87622 236.501C38.1356 226.701 66.241 219.62 84.5591 217.063C87.1933 216.698 89.8276 216.515 92.3808 216.515C100.466 216.515 107.72 218.382 112.827 221.791C115.826 223.779 119.311 227.167 120.344 232.402L5.41016 244.211L5.87622 236.501Z" fill="#F3E2D2"/>
<path d="M5.67383 239.605C36.6769 230.252 67.3354 222.846 85.0457 220.37C87.5178 220.025 89.9697 219.843 92.3608 219.843C99.7366 219.843 106.282 221.507 110.821 224.53C112.948 225.95 114.549 227.614 115.603 229.501L5.51172 241.066L5.67383 239.605Z" fill="#E7D4B9"/>
<path d="M104.175 240.194L103.587 236.967L120.527 235.121L136.292 236.988L135.826 240.052L120.953 238.794L104.175 240.194Z" fill="#0A88F4"/>
<path d="M180.608 217.002L61.6618 217.185C58.4602 217.185 55.8665 214.608 55.8665 211.402L55.5625 5.98558C55.5625 2.77974 58.136 0.182611 61.3376 0.182611L180.284 0C183.486 0 186.079 2.57684 186.079 5.78267L186.383 211.199C186.383 214.405 183.81 217.002 180.608 217.002Z" fill="#0A88F4"/>
<path d="M175.178 195.698L67.0524 195.86C65.1882 195.86 63.6685 194.338 63.6685 192.472L63.3848 12.8232C63.3848 10.9565 64.9045 9.43478 66.7688 9.43478L174.894 9.27246C176.759 9.27246 178.278 10.7942 178.278 12.6609L178.542 192.309C178.562 194.176 177.042 195.698 175.178 195.698Z" fill="#F7F7F7"/>
<path d="M145.735 210.226H98.521C97.1025 210.226 95.9678 209.069 95.9678 207.669V206.33C95.9678 204.91 97.1228 203.773 98.521 203.773H145.735C147.153 203.773 148.288 204.93 148.288 206.33V207.669C148.288 209.069 147.133 210.226 145.735 210.226Z" fill="#0D568C"/>
<path fill-rule="evenodd" clip-rule="evenodd" d="M87.0723 127.665L97.589 109.587C97.9335 108.978 98.8453 108.045 100.183 108.045H116.211L105.39 126.61V126.631C104.945 127.28 104.256 127.625 103.445 127.645L87.0723 127.665Z" fill="#0A88F4"/>
<path fill-rule="evenodd" clip-rule="evenodd" d="M155.036 127.747H138.967C138.055 127.747 137.265 127.341 136.717 126.712L136.17 125.778L110.294 80.6938H126.728C127.518 80.7953 128.187 81.2214 128.653 81.8301L129.038 82.52L155.036 127.747Z" fill="#0A88F4"/>
</g>
<defs>
<clipPath id="clip0">
<rect width="240" height="256" fill="white"/>
</clipPath>
</defs>
</svg>
