<svg width="161" height="23" viewBox="0 0 161 23" fill="none" xmlns="http://www.w3.org/2000/svg">
<path fill-rule="evenodd" clip-rule="evenodd" d="M2.27919 0.615234C1.91895 0.615234 1.57346 0.757472 1.31873 1.01066C1.064 1.26384 0.920898 1.60723 0.920898 1.96529V20.7175C0.920898 21.0756 1.064 21.419 1.31873 21.6721C1.57346 21.9253 1.91895 22.0676 2.27919 22.0676H6.35406V0.615234H2.27919Z" fill="#0A88F4"/>
<path fill-rule="evenodd" clip-rule="evenodd" d="M55.4971 22.0674L60.3326 13.8186C60.4585 13.6151 60.634 13.4465 60.843 13.3285C61.052 13.2105 61.2876 13.1469 61.5279 13.1436H68.883L63.9185 21.5881C63.8183 21.7322 63.6843 21.8499 63.5281 21.931C63.3719 22.0122 63.1982 22.0543 63.022 22.0539L55.4971 22.0674Z" fill="#0A88F4"/>
<path fill-rule="evenodd" clip-rule="evenodd" d="M86.7374 22.1078H79.355C79.1588 22.1078 78.965 22.0656 78.7868 21.984C78.6086 21.9025 78.4503 21.7835 78.3227 21.6353L78.0714 21.21L66.166 0.61499H73.7249C74.0752 0.665141 74.392 0.849209 74.6078 1.12801L74.7844 1.44527L86.7374 22.1078Z" fill="#0A88F4"/>
<path fill-rule="evenodd" clip-rule="evenodd" d="M129.674 22.0674L134.509 13.8186C134.635 13.6151 134.811 13.4465 135.02 13.3285C135.229 13.2105 135.464 13.1469 135.705 13.1436H143.073L138.095 21.6219C137.996 21.7668 137.862 21.8851 137.706 21.9663C137.549 22.0476 137.375 22.0892 137.199 22.0876L129.674 22.0674Z" fill="#0A88F4"/>
<path fill-rule="evenodd" clip-rule="evenodd" d="M160.921 22.1078H153.532C153.336 22.1078 153.142 22.0656 152.964 21.984C152.785 21.9025 152.627 21.7835 152.5 21.6353L152.255 21.21L140.35 0.61499H147.909C148.261 0.663466 148.581 0.847696 148.798 1.12801L148.982 1.44527L160.921 22.1078Z" fill="#0A88F4"/>
<path fill-rule="evenodd" clip-rule="evenodd" d="M51.9048 0.615051H39.001V22.0674H43.2253C43.5348 22.0351 43.8237 21.8981 44.0438 21.6794C44.2638 21.4606 44.4016 21.1735 44.4341 20.8658V15.3981H51.9048C52.9411 15.4967 53.9867 15.3788 54.9745 15.0522C55.9623 14.7256 56.8705 14.1973 57.6409 13.5014C58.4113 12.8054 59.0268 11.9571 59.4481 11.0109C59.8693 10.0646 60.0869 9.04132 60.0869 8.00659C60.0869 6.97186 59.8693 5.94855 59.4481 5.00229C59.0268 4.05604 58.4113 3.20773 57.6409 2.51178C56.8705 1.81583 55.9623 1.28759 54.9745 0.960961C53.9867 0.634328 52.9411 0.516505 51.9048 0.615051ZM51.9048 9.97091H44.4341V6.08276H51.9048C52.4244 6.08276 52.9228 6.28794 53.2902 6.65316C53.6577 7.01838 53.8641 7.51372 53.8641 8.03021C53.8641 8.54671 53.6577 9.04205 53.2902 9.40727C52.9228 9.77249 52.4244 9.97766 51.9048 9.97766V9.97091Z" fill="#0A88F4"/>
<path fill-rule="evenodd" clip-rule="evenodd" d="M28.2969 0.615017C28.0322 0.615986 27.7736 0.693808 27.5528 0.838917C27.332 0.984025 27.1587 1.1901 27.0541 1.4318L23.3324 12.2322C23.2877 12.3673 23.2013 12.4849 23.0855 12.5682C22.9696 12.6516 22.8302 12.6965 22.6872 12.6965C22.5442 12.6965 22.4048 12.6516 22.2889 12.5682C22.1731 12.4849 22.0867 12.3673 22.042 12.2322L18.3271 1.4318C18.2216 1.18798 18.0462 0.980468 17.8227 0.835197C17.5993 0.689927 17.3377 0.613342 17.0707 0.615017H9.07031V22.0673H14.5035C14.5035 22.0673 14.5035 10.2071 14.5035 10.1734C14.4801 9.99436 14.5292 9.81341 14.64 9.67037C14.7508 9.52732 14.9142 9.43388 15.0943 9.4106C15.2745 9.38733 15.4565 9.43613 15.6004 9.54626C15.7444 9.6564 15.8384 9.81885 15.8618 9.99788L19.6854 21.0683C19.763 21.3549 19.9335 21.608 20.1704 21.7886C20.4073 21.9692 20.6975 22.0672 20.9961 22.0673H24.4462C24.7459 22.0686 25.0377 21.9714 25.276 21.7907C25.5143 21.61 25.6858 21.356 25.7637 21.0683L29.5873 9.99788C29.6107 9.81885 29.7047 9.6564 29.8487 9.54626C29.9926 9.43613 30.1746 9.38733 30.3548 9.4106C30.5349 9.43388 30.6983 9.52732 30.8091 9.67037C30.9199 9.81341 30.969 9.99436 30.9456 10.1734V22.0673H36.3788V0.615017H28.2969Z" fill="#0A88F4"/>
<path fill-rule="evenodd" clip-rule="evenodd" d="M124.165 22.0673H121.367V6.69023C121.367 6.5112 121.296 6.3395 121.168 6.21291C121.041 6.08632 120.868 6.0152 120.688 6.0152H113.299V1.96504C113.299 1.60699 113.442 1.2636 113.697 1.01041C113.951 0.757228 114.297 0.61499 114.657 0.61499L133.673 0.61499C134.033 0.61499 134.379 0.757228 134.634 1.01041C134.888 1.2636 135.031 1.60699 135.031 1.96504V6.0152H127.636C127.455 6.0152 127.283 6.08632 127.155 6.21291C127.028 6.3395 126.956 6.5112 126.956 6.69023V22.0673H124.165Z" fill="#0A88F4"/>
<path fill-rule="evenodd" clip-rule="evenodd" d="M110.991 14.0412H105.326C105.111 14.0422 104.899 14.0942 104.707 14.1928C104.516 14.2914 104.351 14.4338 104.226 14.6083C103.723 15.2571 103.077 15.7826 102.338 16.1442C101.598 16.5058 100.785 16.6939 99.9612 16.6941H97.2446C96.5244 16.7196 95.8064 16.6006 95.1335 16.3442C94.4606 16.0879 93.8466 15.6994 93.328 15.202C92.8095 14.7047 92.397 14.1085 92.1153 13.4492C91.8337 12.79 91.6885 12.081 91.6885 11.3648C91.6885 10.6485 91.8337 9.93957 92.1153 9.28029C92.397 8.62101 92.8095 8.02488 93.328 7.5275C93.8466 7.03011 94.4606 6.64165 95.1335 6.3853C95.8064 6.12895 96.5244 6.00996 97.2446 6.03544H99.9612C100.781 6.04053 101.589 6.23168 102.324 6.59433C103.058 6.95698 103.7 7.48155 104.199 8.12802C104.324 8.3025 104.489 8.44492 104.68 8.54352C104.872 8.64211 105.084 8.69405 105.299 8.69504H110.991C111.075 8.69917 111.16 8.68324 111.237 8.64856C111.315 8.61388 111.383 8.56144 111.436 8.49554C111.489 8.42965 111.525 8.35218 111.542 8.26952C111.559 8.18685 111.557 8.10134 111.534 8.02002C111.534 7.98627 111.473 7.76351 111.446 7.696C110.685 5.63414 109.305 3.85467 107.492 2.59886C105.679 1.34304 103.522 0.67166 101.313 0.675739H95.8795C94.4445 0.639893 93.0168 0.889863 91.6805 1.41092C90.3442 1.93198 89.1263 2.71359 88.0986 3.70971C87.0709 4.70582 86.2541 5.8963 85.6965 7.21099C85.1388 8.52568 84.8516 9.93801 84.8516 11.3648C84.8516 12.7915 85.1388 14.2039 85.6965 15.5185C86.2541 16.8332 87.0709 18.0237 88.0986 19.0198C89.1263 20.0159 90.3442 20.7976 91.6805 21.3186C93.0168 21.8397 94.4445 22.0896 95.8795 22.0538H101.313C103.523 22.0565 105.68 21.3828 107.492 20.1244C109.304 18.866 110.682 17.0839 111.439 15.02C111.439 14.9525 111.52 14.7298 111.527 14.696C111.546 14.6166 111.546 14.534 111.527 14.4545C111.509 14.375 111.473 14.3008 111.421 14.2376C111.369 14.1743 111.303 14.1237 111.229 14.0897C111.154 14.0557 111.073 14.0391 110.991 14.0412Z" fill="#0A88F4"/>
</svg>
