<svg width="76" height="76" viewBox="0 0 76 76" fill="none" xmlns="http://www.w3.org/2000/svg">
<g opacity="0.8">
<g opacity="0.8">
<path opacity="0.8" d="M38.1807 73.8656C18.6913 73.8656 2.83105 58.0054 2.83105 38.516C2.83105 19.0267 18.6913 3.1748 38.1807 3.1748C57.67 3.1748 73.5303 19.0351 73.5303 38.5244C73.5303 58.0138 57.67 73.8656 38.1807 73.8656ZM38.1807 5.88819C20.1866 5.88819 5.55284 20.522 5.55284 38.516C5.55284 56.5101 20.1866 71.1523 38.1807 71.1523C56.1747 71.1523 70.8085 56.5185 70.8085 38.5244C70.8085 20.5304 56.1747 5.88819 38.1807 5.88819Z" fill="#B3B3B3"/>
</g>
</g>
<path d="M37.9957 75.5799C17.2799 75.5799 0.419922 58.7199 0.419922 37.9957C0.419922 17.2715 17.2799 0.419922 37.9957 0.419922C58.7115 0.419922 75.5715 17.2799 75.5715 37.9957C75.5715 58.7115 58.7199 75.5799 37.9957 75.5799ZM37.9957 3.30972C18.8676 3.30972 3.30972 18.8676 3.30972 37.9957C3.30972 57.1238 18.8676 72.6817 37.9957 72.6817C57.1238 72.6817 72.6901 57.1238 72.6901 37.9957C72.6901 18.8676 57.1238 3.30972 37.9957 3.30972Z" fill="url(#paint0_linear)" stroke="url(#paint1_linear)" stroke-miterlimit="10"/>
<g opacity="0.8">
<path opacity="0.8" d="M24.2441 34.6863H34.0392V24.0176H38.1807V34.6947H47.9758V38.7858H38.1807V49.5133H34.0392V38.7774H24.2441V34.6863Z" fill="#B3B3B3"/>
</g>
<path d="M25.084 35.8285H35.4419V24.5381H39.827V35.8285H50.1849V40.1632H39.827V51.5123H35.4419V40.1632H25.084V35.8285Z" fill="url(#paint2_linear)"/>
<defs>
<linearGradient id="paint0_linear" x1="0.419922" y1="37.9991" x2="75.5781" y2="37.9991" gradientUnits="userSpaceOnUse">
<stop stop-color="#019281"/>
<stop offset="1" stop-color="#2E1671"/>
</linearGradient>
<linearGradient id="paint1_linear" x1="-0.000106845" y1="37.9991" x2="75.9981" y2="37.9991" gradientUnits="userSpaceOnUse">
<stop stop-color="#019281"/>
<stop offset="1" stop-color="#2D1871"/>
</linearGradient>
<linearGradient id="paint2_linear" x1="25.0836" y1="38.0245" x2="50.1919" y2="38.0245" gradientUnits="userSpaceOnUse">
<stop stop-color="#019281"/>
<stop offset="1" stop-color="#2D1871"/>
</linearGradient>
</defs>
</svg>
