<svg width="43" height="43" viewBox="0 0 43 43" fill="none" xmlns="http://www.w3.org/2000/svg">
<circle cx="41" cy="41" r="2" transform="rotate(-180 41 41)" fill="#0A88F4"/>
<circle cx="28" cy="41" r="2" transform="rotate(-180 28 41)" fill="#0A88F4"/>
<circle cx="15" cy="41" r="2" transform="rotate(-180 15 41)" fill="#0A88F4"/>
<circle cx="41" cy="28" r="2" transform="rotate(-180 41 28)" fill="#0A88F4"/>
<circle cx="28" cy="28" r="2" transform="rotate(-180 28 28)" fill="#0A88F4"/>
<circle cx="41" cy="15" r="2" transform="rotate(-180 41 15)" fill="#0A88F4"/>
<circle cx="41" cy="2" r="2" transform="rotate(-180 41 2)" fill="#0A88F4"/>
<circle cx="28" cy="15" r="2" transform="rotate(-180 28 15)" fill="#0A88F4"/>
<circle cx="15" cy="28" r="2" transform="rotate(-180 15 28)" fill="#0A88F4"/>
<circle cx="2" cy="41" r="2" transform="rotate(-180 2 41)" fill="#0A88F4"/>
</svg>
