<svg width="79" height="85" viewBox="0 0 79 85" fill="none" xmlns="http://www.w3.org/2000/svg">
<path d="M45.6954 46.9928C45.421 46.9928 45.1382 46.9177 44.8887 46.7759L1.02296 21.4937C0.524008 21.2016 0.208008 20.6676 0.208008 20.0835C0.208008 19.4995 0.515692 18.9655 1.01464 18.6734L32.4982 0.425162C32.9972 0.133123 33.6125 0.133123 34.1115 0.416818L77.9773 25.4237C78.4845 25.7074 78.7922 26.2414 78.8005 26.8255C78.8005 27.4096 78.5012 27.9436 78.0022 28.2356L46.5103 46.7759C46.2609 46.9177 45.9781 46.9928 45.6954 46.9928ZM5.08106 20.0752L45.6871 43.4884L73.9275 26.8588L33.3215 3.71268L5.08106 20.0752Z" fill="url(#paint0_linear)" stroke="url(#paint1_linear)" stroke-width="0.5" stroke-miterlimit="10"/>
<path d="M45.6954 59.5002C45.421 59.5002 45.1382 59.4251 44.8887 59.2832L1.02296 33.9927C0.515692 33.7006 0.208008 33.1666 0.208008 32.5825V20.0833C0.208008 19.4992 0.515692 18.9652 1.01464 18.6731C1.51359 18.3811 2.12896 18.3811 2.63622 18.6731L45.6787 43.4964L76.3474 25.4401C76.8463 25.148 77.47 25.1397 77.9773 25.4317C78.4845 25.7238 78.7922 26.2578 78.7922 26.8419V39.3245C78.7922 39.9002 78.4845 40.4342 77.9939 40.7262L46.5103 59.2749C46.2609 59.4251 45.9781 59.5002 45.6954 59.5002ZM3.45117 31.6397L45.6871 55.9874L75.5574 38.3899V29.6788L46.5103 46.7756C46.0114 47.076 45.3877 47.076 44.8804 46.784L3.45117 22.8868V31.6397Z" fill="url(#paint2_linear)" stroke="url(#paint3_linear)" stroke-width="0.5" stroke-miterlimit="10"/>
<path d="M45.6954 72.1418C45.421 72.1418 45.1382 72.0667 44.8887 71.9248L1.02296 46.6343C0.515692 46.3422 0.208008 45.8082 0.208008 45.2241V32.7249C0.208008 32.1408 0.515692 31.6068 1.01464 31.3147C1.51359 31.0227 2.12896 31.0227 2.63622 31.3147L45.6787 56.1297L76.3474 38.0817C76.8463 37.7813 77.47 37.7813 77.9773 38.0733C78.4845 38.3654 78.7922 38.8994 78.7922 39.4835V51.9661C78.7922 52.5418 78.4845 53.0758 77.9939 53.3678L46.5103 71.9165C46.2609 72.0667 45.9781 72.1418 45.6954 72.1418ZM3.45117 44.2896L45.6871 68.6373L75.5574 51.0399V42.3204L46.5103 59.4172C46.0114 59.7176 45.3877 59.7176 44.8804 59.4256L3.45117 35.5368V44.2896Z" fill="url(#paint4_linear)" stroke="url(#paint5_linear)" stroke-width="0.5" stroke-miterlimit="10"/>
<path d="M45.6954 84.7907C45.421 84.7907 45.1382 84.7156 44.8887 84.5738L1.02296 59.2832C0.515692 58.9912 0.208008 58.4572 0.208008 57.8731V45.3655C0.208008 44.7814 0.515692 44.2474 1.01464 43.9554C1.51359 43.6633 2.12896 43.6633 2.63622 43.9554L45.6787 68.7787L76.3474 50.7223C76.8463 50.4303 77.47 50.4219 77.9773 50.714C78.4845 51.006 78.7922 51.54 78.7922 52.1241V64.615C78.7922 65.1908 78.4845 65.7248 77.9939 66.0168L46.5103 84.5655C46.2609 84.7156 45.9781 84.7907 45.6954 84.7907ZM3.45117 56.9302L45.6871 81.2779L75.5574 63.6805V54.9694L46.5103 72.0578C46.0114 72.3582 45.3877 72.3582 44.8804 72.0662L3.45117 48.1774V56.9302Z" fill="url(#paint6_linear)" stroke="url(#paint7_linear)" stroke-width="0.5" stroke-miterlimit="10"/>
<path d="M24.4656 25.1314C23.9084 25.1314 23.3596 24.8394 23.0602 24.3221C22.6111 23.5461 22.8772 22.5531 23.6506 22.1026L38.5192 13.4916C39.2926 13.041 40.2822 13.308 40.7312 14.084C41.1803 14.86 40.9142 15.8529 40.1408 16.3035L25.2805 24.9145C25.0227 25.0647 24.74 25.1314 24.4656 25.1314Z" fill="url(#paint8_linear)" stroke="url(#paint9_linear)" stroke-width="0.5" stroke-miterlimit="10"/>
<path d="M32.074 29.5367C31.5168 29.5367 30.968 29.2447 30.6686 28.7273C30.2195 27.9513 30.4856 26.9584 31.259 26.5078L46.1276 17.8969C46.901 17.4463 47.8906 17.7133 48.3396 18.4893C48.7887 19.2653 48.5226 20.2582 47.7492 20.7088L32.8806 29.3198C32.6228 29.4616 32.3484 29.5367 32.074 29.5367Z" fill="url(#paint10_linear)" stroke="url(#paint11_linear)" stroke-width="0.5" stroke-miterlimit="10"/>
<path d="M39.6755 33.9342C39.1184 33.9342 38.5695 33.6421 38.2701 33.1248C37.8211 32.3488 38.0872 31.3559 38.8606 30.9053L53.7292 22.2943C54.5026 21.8438 55.4921 22.1108 55.9412 22.8867C56.3902 23.6627 56.1241 24.6557 55.3508 25.1062L40.4821 33.7172C40.2244 33.8674 39.9499 33.9342 39.6755 33.9342Z" fill="url(#paint12_linear)" stroke="url(#paint13_linear)" stroke-width="0.5" stroke-miterlimit="10"/>
<defs>
<linearGradient id="paint0_linear" x1="0.208008" y1="23.6022" x2="78.7946" y2="23.6022" gradientUnits="userSpaceOnUse">
<stop stop-color="#019281"/>
<stop offset="1" stop-color="#2E1671"/>
</linearGradient>
<linearGradient id="paint1_linear" x1="0.000113076" y1="23.6022" x2="79.0024" y2="23.6022" gradientUnits="userSpaceOnUse">
<stop stop-color="#009481"/>
<stop offset="1" stop-color="#2E1672"/>
</linearGradient>
<linearGradient id="paint2_linear" x1="0.208008" y1="38.9759" x2="78.7945" y2="38.9759" gradientUnits="userSpaceOnUse">
<stop stop-color="#019281"/>
<stop offset="1" stop-color="#2E1671"/>
</linearGradient>
<linearGradient id="paint3_linear" x1="0.000113499" y1="38.9759" x2="79.0024" y2="38.9759" gradientUnits="userSpaceOnUse">
<stop stop-color="#009481"/>
<stop offset="1" stop-color="#2E1672"/>
</linearGradient>
<linearGradient id="paint4_linear" x1="0.208008" y1="51.6214" x2="78.7945" y2="51.6214" gradientUnits="userSpaceOnUse">
<stop stop-color="#019281"/>
<stop offset="1" stop-color="#2E1671"/>
</linearGradient>
<linearGradient id="paint5_linear" x1="0.000113499" y1="51.6214" x2="79.0024" y2="51.6214" gradientUnits="userSpaceOnUse">
<stop stop-color="#009481"/>
<stop offset="1" stop-color="#2E1672"/>
</linearGradient>
<linearGradient id="paint6_linear" x1="0.208008" y1="64.2656" x2="78.7945" y2="64.2656" gradientUnits="userSpaceOnUse">
<stop stop-color="#019281"/>
<stop offset="1" stop-color="#2E1671"/>
</linearGradient>
<linearGradient id="paint7_linear" x1="0.000113499" y1="64.2656" x2="79.0024" y2="64.2656" gradientUnits="userSpaceOnUse">
<stop stop-color="#009481"/>
<stop offset="1" stop-color="#2E1672"/>
</linearGradient>
<linearGradient id="paint8_linear" x1="22.8449" y1="19.1978" x2="40.9543" y2="19.1978" gradientUnits="userSpaceOnUse">
<stop stop-color="#019281"/>
<stop offset="1" stop-color="#2E1671"/>
</linearGradient>
<linearGradient id="paint9_linear" x1="22.637" y1="19.1978" x2="41.1622" y2="19.1978" gradientUnits="userSpaceOnUse">
<stop stop-color="#009481"/>
<stop offset="1" stop-color="#2E1672"/>
</linearGradient>
<linearGradient id="paint10_linear" x1="30.4469" y1="23.6009" x2="48.5554" y2="23.6009" gradientUnits="userSpaceOnUse">
<stop stop-color="#019281"/>
<stop offset="1" stop-color="#2E1671"/>
</linearGradient>
<linearGradient id="paint11_linear" x1="30.239" y1="23.6009" x2="48.7632" y2="23.6009" gradientUnits="userSpaceOnUse">
<stop stop-color="#009481"/>
<stop offset="1" stop-color="#2E1672"/>
</linearGradient>
<linearGradient id="paint12_linear" x1="38.0498" y1="28.0049" x2="56.1582" y2="28.0049" gradientUnits="userSpaceOnUse">
<stop stop-color="#019281"/>
<stop offset="1" stop-color="#2E1671"/>
</linearGradient>
<linearGradient id="paint13_linear" x1="37.8419" y1="28.0049" x2="56.3661" y2="28.0049" gradientUnits="userSpaceOnUse">
<stop stop-color="#009481"/>
<stop offset="1" stop-color="#2E1672"/>
</linearGradient>
</defs>
</svg>
