<svg width="91" height="79" viewBox="0 0 91 79" fill="none" xmlns="http://www.w3.org/2000/svg">
<path d="M45.6866 78.7736C45.0585 78.7736 44.4759 78.4384 44.1664 77.8948L34.2262 60.31H4.98827C2.36668 60.31 0.227539 58.181 0.227539 55.5719V4.96475C0.227539 2.35558 2.36668 0.226562 4.98827 0.226562H86.0208C88.6424 0.226562 90.7815 2.35558 90.7815 4.96475V55.5809C90.7815 58.1901 88.6424 60.3191 86.0208 60.3191H56.8101L47.2158 77.8676C46.9154 78.4202 46.3329 78.7645 45.6957 78.7736C45.6957 78.7736 45.6957 78.7736 45.6866 78.7736ZM4.98827 3.6964C4.28736 3.6964 3.71388 4.26716 3.71388 4.96475V55.5809C3.71388 56.2785 4.28736 56.8493 4.98827 56.8493H35.2457C35.8738 56.8493 36.4564 57.1845 36.7659 57.7281L45.6684 73.4556L54.2522 57.7462C54.5526 57.1845 55.1443 56.8402 55.7815 56.8402H86.0208C86.7217 56.8402 87.2952 56.2694 87.2952 55.5719V4.96475C87.2952 4.26716 86.7217 3.6964 86.0208 3.6964H4.98827ZM78.7295 51.5675H12.2705C10.4772 51.5675 9.02078 50.118 9.02078 48.3332V12.2125C9.02078 10.4277 10.4772 8.97817 12.2705 8.97817H78.7295C80.5227 8.97817 81.9792 10.4277 81.9792 12.2125V48.3332C81.9792 50.1089 80.5227 51.5675 78.7295 51.5675ZM12.498 48.0977H78.4928V12.4389H12.498V48.0977Z" fill="url(#paint0_linear)" stroke="url(#paint1_linear)" stroke-width="0.5" stroke-miterlimit="10"/>
<defs>
<linearGradient id="paint0_linear" x1="0.227539" y1="39.4996" x2="90.7756" y2="39.4996" gradientUnits="userSpaceOnUse">
<stop stop-color="#019281"/>
<stop offset="1" stop-color="#2E1671"/>
</linearGradient>
<linearGradient id="paint1_linear" x1="-2.92164e-05" y1="39.4996" x2="91.0032" y2="39.4996" gradientUnits="userSpaceOnUse">
<stop stop-color="#028F80"/>
<stop offset="1" stop-color="#2D1772"/>
</linearGradient>
</defs>
</svg>
