<svg width="81" height="78" viewBox="0 0 81 78" fill="none" xmlns="http://www.w3.org/2000/svg">
<g opacity="0.8">
<path opacity="0.8" d="M61.8214 71.8447C61.6195 71.8447 61.4099 71.7905 61.2313 71.6666L48.2412 63.2425C45.8264 61.6863 43.4194 60.1222 41.0279 58.535C40.7794 58.3724 40.7018 58.3569 40.694 58.3569C40.694 58.3569 40.6164 58.3724 40.4067 58.504C35.2743 61.8798 30.1187 65.2169 24.963 68.5618L20.1257 71.6744C19.7374 71.9144 19.2405 71.8911 18.8756 71.6124C18.5184 71.3337 18.3709 70.8536 18.5184 70.42C19.5899 67.1991 20.576 64.2336 21.5543 61.2759L22.7423 57.6833C23.8371 54.3694 24.9319 51.0478 26.0656 47.7494C26.1121 47.6178 26.1277 47.5481 26.1354 47.5094C26.1121 47.5016 26.0578 47.4474 25.9336 47.3545C21.4456 44.0484 16.9732 40.719 12.5009 37.3897L8.22258 34.1997C7.82658 33.9054 7.42283 33.5415 7.09671 32.9221C6.92589 32.5892 6.94142 32.1866 7.13554 31.8614C7.32965 31.5439 7.68682 31.3426 8.05952 31.3426L19.9859 31.3349C23.5731 31.3349 27.1526 31.3426 30.7398 31.3581C30.9883 31.3581 31.0737 31.3349 31.0892 31.3271C31.0892 31.3194 31.1358 31.2574 31.2135 31.0561C33.2711 25.3885 35.352 19.7363 37.4407 14.0841L39.6846 8.0603C39.8477 7.6267 40.2825 7.30925 40.7173 7.36345C41.1754 7.3712 41.5792 7.66542 41.7267 8.09901L42.1382 9.31461C42.542 10.507 42.9147 11.6142 43.2718 12.7291L44.6074 16.8405C46.1447 21.5713 47.6899 26.3098 49.204 31.0484C49.2661 31.2497 49.3204 31.3271 49.336 31.3504C49.336 31.3271 49.4292 31.3658 49.6155 31.3658C53.591 31.3426 57.5664 31.3349 61.5341 31.3349L72.8393 31.3426C73.313 31.3426 73.74 31.6523 73.8798 32.1014C74.0584 32.5582 73.9652 33.2241 73.577 33.5183C71.9464 34.7417 70.3081 35.965 68.6775 37.1806L65.7503 39.364C62.2019 42.0198 58.6457 44.6678 55.074 47.2926C54.8799 47.4319 54.8178 47.5094 54.8022 47.5326C54.81 47.5403 54.8178 47.6333 54.8954 47.8268C56.8987 53.4016 58.8631 58.9995 60.8353 64.5898L62.4659 69.2277C62.5357 69.429 62.5979 69.6303 62.691 69.9168L62.7687 70.1645C62.8774 70.3349 62.9473 70.5362 62.9473 70.7607C62.9473 71.3646 62.4581 71.9144 61.8369 71.8447C61.8369 71.8447 61.8292 71.8447 61.8214 71.8447ZM10.9169 33.5028L13.8053 35.6476C18.2777 38.9769 22.7501 42.3063 27.2302 45.6124C28.2629 46.3867 28.5347 47.2539 28.1154 48.454C26.9895 51.7369 25.8947 55.0508 24.7999 58.3569L23.612 61.9573C22.9364 64.0091 22.2532 66.0609 21.5388 68.2056L23.775 66.75C28.9229 63.4129 34.0708 60.0758 39.2032 56.7077C40.4145 55.9102 41.5714 56.2973 42.2314 56.7464C44.6074 58.3182 47.0144 59.8745 49.4214 61.4308L59.7871 68.1592L58.7855 65.3098C56.821 59.7196 54.8566 54.1294 52.8533 48.5624C52.3952 47.2926 52.6903 46.3635 53.7928 45.5505C57.3645 42.9334 60.9052 40.2854 64.4536 37.6374L67.3808 35.454C68.2505 34.8113 69.1201 34.1609 69.9897 33.5106L61.5341 33.5028C57.5664 33.5028 53.5987 33.5106 49.631 33.5338C48.3111 33.5338 47.5501 32.9686 47.1386 31.7143C45.6245 26.9757 44.0794 22.2449 42.542 17.5064L41.2065 13.395C41.0201 12.8221 40.8338 12.2568 40.6397 11.6761L39.475 14.8274C37.3941 20.4796 35.3054 26.1318 33.2556 31.7917C32.8207 32.9918 32.052 33.5183 30.7631 33.5183C27.1526 33.5028 23.5731 33.4951 19.9937 33.4951L10.9169 33.5028Z" fill="#B3B3B3"/>
</g>
<path d="M66.0527 77.605C65.8042 77.605 65.5635 77.5353 65.3461 77.396L49.8015 67.2995C46.913 65.4335 44.0246 63.5675 41.1595 61.6628C40.8644 61.4692 40.7635 61.446 40.7557 61.446C40.7557 61.446 40.6548 61.4615 40.4141 61.6241C34.2646 65.6658 28.0917 69.661 21.9267 73.664L16.1343 77.3882C15.6684 77.6824 15.0705 77.6515 14.6357 77.3108C14.2009 76.9779 14.0301 76.4049 14.2009 75.8861C15.4898 72.0303 16.6623 68.4841 17.8347 64.938L19.2634 60.633C20.5756 56.661 21.8801 52.689 23.2389 48.7402C23.2932 48.5854 23.3087 48.4925 23.3165 48.446C23.2932 48.4383 23.2233 48.3763 23.0758 48.2602C17.7027 44.3036 12.3452 40.3162 6.99538 36.3287L1.87077 32.5115C1.39713 32.1708 0.915725 31.745 0.527496 30.9939C0.317853 30.5913 0.341146 30.1113 0.574083 29.7241C0.807021 29.337 1.22631 29.1047 1.68442 29.1047L15.9712 29.097C20.265 29.097 24.5511 29.1047 28.8526 29.1202C29.1477 29.1202 29.2486 29.0892 29.2719 29.0815C29.2719 29.0737 29.3341 28.9963 29.4195 28.7563C31.8808 21.9737 34.3733 15.2066 36.8735 8.4317L39.56 1.22324C39.7541 0.70448 40.2821 0.317345 40.8023 0.387029C41.3536 0.394772 41.835 0.750936 42.0058 1.2697L42.495 2.72533C42.9764 4.14998 43.4268 5.48173 43.8538 6.81347L45.4611 11.7378C47.309 17.4055 49.1492 23.0809 50.9661 28.7563C51.0438 28.9963 51.0981 29.0892 51.1214 29.1202C51.1214 29.0892 51.2379 29.1357 51.4553 29.1357C56.215 29.1047 60.9747 29.097 65.7266 29.097L79.268 29.1047C79.8348 29.1047 80.3395 29.4764 80.5103 30.0184C80.7278 30.5603 80.6113 31.3578 80.1454 31.714C78.1965 33.1774 76.2321 34.6408 74.2831 36.0964L70.7736 38.7134C66.5186 41.8879 62.2714 45.0624 57.9931 48.206C57.7602 48.3763 57.6825 48.4615 57.667 48.4925C57.6747 48.5002 57.6903 48.6086 57.7757 48.8486C60.1749 55.5228 62.5276 62.2203 64.888 68.9254L66.8447 74.477C66.9301 74.717 67 74.957 67.1087 75.2977L67.2019 75.5919C67.3339 75.7932 67.4115 76.041 67.4115 76.3042C67.4115 77.0321 66.8292 77.6902 66.0838 77.5973C66.0682 77.605 66.0605 77.605 66.0527 77.605ZM5.10083 31.6985L8.55606 34.2691C13.9059 38.2566 19.2634 42.2441 24.6365 46.2006C25.8711 47.122 26.1972 48.1673 25.7002 49.5997C24.3492 53.5329 23.037 57.4972 21.7325 61.4537L20.3039 65.7587C19.4963 68.2131 18.6811 70.6753 17.827 73.2381L20.5057 71.496C26.6708 67.5008 32.8359 63.4978 38.9776 59.4716C40.4296 58.5115 41.8117 58.9761 42.6037 59.5181C45.4533 61.4073 48.334 63.2655 51.2068 65.1315L63.6224 73.1839L62.4267 69.7771C60.074 63.0874 57.7213 56.39 55.3221 49.7158C54.7786 48.1905 55.128 47.0833 56.4479 46.1154C60.7184 42.9796 64.9657 39.8129 69.2129 36.6384L72.7225 34.0213C73.7629 33.2471 74.8034 32.4728 75.8438 31.6985L65.7266 31.6908C60.9747 31.6908 56.2228 31.6985 51.4708 31.7295C49.8869 31.7295 48.9784 31.0559 48.4893 29.5538C46.6723 23.8784 44.8244 18.2107 42.9842 12.5431L41.3769 7.61872C41.1517 6.93736 40.9266 6.256 40.6936 5.55916L39.296 9.3376C36.8036 16.1047 34.3034 22.8718 31.8498 29.6544C31.3295 31.0868 30.4056 31.7218 28.8604 31.7218C24.5355 31.6985 20.2495 31.6985 15.9635 31.6985H5.10083Z" fill="url(#paint0_linear)" stroke="url(#paint1_linear)" stroke-miterlimit="10"/>
<defs>
<linearGradient id="paint0_linear" x1="0.387734" y1="38.9983" x2="80.6136" y2="38.9983" gradientUnits="userSpaceOnUse">
<stop stop-color="#009581"/>
<stop offset="1" stop-color="#250C5A"/>
</linearGradient>
<linearGradient id="paint1_linear" x1="-0.000494802" y1="38.9983" x2="81.0018" y2="38.9983" gradientUnits="userSpaceOnUse">
<stop stop-color="#009581"/>
<stop offset="1" stop-color="#2F1271"/>
</linearGradient>
</defs>
</svg>
