<svg width="79" height="80" viewBox="0 0 79 80" fill="none" xmlns="http://www.w3.org/2000/svg">
<g opacity="0.8">
<g opacity="0.8">
<path opacity="0.8" d="M55.4692 78.9392H24.1755C23.3607 78.9392 22.707 78.2833 22.707 77.4656C22.707 73.6017 28.4017 71.4721 34.159 70.6903V62.4864C34.159 61.6687 34.8127 61.0127 35.6275 61.0127H44.644C45.4588 61.0127 46.1124 61.6687 46.1124 62.4864V70.7802C51.5654 71.6248 56.9377 73.7545 56.9377 77.4746C56.9377 78.2743 56.284 78.9392 55.4692 78.9392ZM26.8527 75.9829H52.7831C51.3057 75.0035 48.4942 73.9881 44.4739 73.5208C43.7307 73.431 43.1756 72.802 43.1756 72.0562V63.951H37.0959V71.9933C37.0959 72.7481 36.5229 73.3861 35.7707 73.4579C31.4102 73.8982 28.3927 74.9586 26.8527 75.9829Z" fill="#B3B3B3"/>
</g>
<g opacity="0.8">
<path opacity="0.8" d="M76.5109 56.6728H3.74285C2.92805 56.6728 2.27441 56.0168 2.27441 55.1991V15.0508C2.27441 13.4244 3.59063 12.1035 5.21128 12.1035H18.6421C19.4569 12.1035 20.1105 12.7595 20.1105 13.5772V26.1392C20.1105 26.8671 20.7015 27.4511 21.4178 27.4511H27.9004C28.7152 27.4511 29.3688 28.1071 29.3688 28.9248V36.7244L36.2991 27.9993C36.5767 27.6488 36.9975 27.4422 37.4452 27.4422H62.14C62.8653 27.4422 63.4473 26.8491 63.4473 26.1302V13.5772C63.4473 12.7595 64.1009 12.1035 64.9157 12.1035H75.0336C76.6542 12.1035 77.9704 13.4244 77.9704 15.0508V55.1991C77.9794 56.0078 77.3168 56.6728 76.5109 56.6728ZM5.22024 53.7165H75.0425V15.0508H66.3931V26.1392C66.3931 28.4845 64.4859 30.3985 62.1489 30.3985H38.1526L29.0465 41.8553C28.6525 42.3405 28.0078 42.5292 27.4169 42.3315C26.8259 42.1249 26.432 41.5677 26.432 40.9387V30.3985H21.4267C19.0898 30.3985 17.1826 28.4845 17.1826 26.1392V15.0508H5.22024V53.7165Z" fill="#B3B3B3"/>
</g>
<g opacity="0.8">
<path opacity="0.8" d="M75.0424 63.9514H5.22007C3.59942 63.9514 2.2832 62.6305 2.2832 61.004V55.1992C2.2832 54.3815 2.93684 53.7256 3.75164 53.7256H76.5108C77.3256 53.7256 77.9792 54.3815 77.9792 55.1992V61.004C77.9792 62.6305 76.663 63.9514 75.0424 63.9514ZM5.22007 56.6639V60.995H75.0424V56.6639H5.22007Z" fill="#B3B3B3"/>
</g>
<g opacity="0.8">
<path opacity="0.8" d="M27.9004 42.4127C27.7392 42.4127 27.5781 42.3858 27.4169 42.3318C26.8259 42.1252 26.432 41.5681 26.432 40.9391V30.3988H21.4268C19.0898 30.3988 17.1826 28.4848 17.1826 26.1395V6.53268C17.1826 4.1874 19.0898 2.27344 21.4268 2.27344H62.14C64.477 2.27344 66.3841 4.1874 66.3841 6.53268V26.1395C66.3841 28.4848 64.477 30.3988 62.14 30.3988H38.1526L29.0465 41.8556C28.76 42.215 28.3391 42.4127 27.9004 42.4127ZM21.4178 5.22076C20.7015 5.22076 20.1105 5.80483 20.1105 6.53268V26.1395C20.1105 26.8674 20.7015 27.4515 21.4178 27.4515H27.9004C28.7152 27.4515 29.3688 28.1074 29.3688 28.9251V36.7247L36.2991 27.9996C36.5767 27.6491 36.9975 27.4425 37.4452 27.4425H62.14C62.8653 27.4425 63.4473 26.8494 63.4473 26.1306V6.53268C63.4473 5.81382 62.8653 5.22076 62.14 5.22076H21.4178Z" fill="#B3B3B3"/>
</g>
</g>
<path d="M55.4606 79.8831H22.8954C22.0537 79.8831 21.3643 79.2002 21.3643 78.3465C21.3643 74.3209 27.2828 72.1104 33.2729 71.2927V62.7563C33.2729 61.9116 33.9534 61.2197 34.804 61.2197H44.1877C45.0293 61.2197 45.7188 61.9026 45.7188 62.7563V71.3826C51.3866 72.2632 56.9827 74.4737 56.9827 78.3465C56.9827 79.2002 56.3023 79.8831 55.4606 79.8831ZM25.68 76.819H52.658C51.118 75.8036 48.199 74.7433 44.0175 74.258C43.2475 74.1682 42.6655 73.5122 42.6655 72.7305V64.2929H36.3441V72.6586C36.3441 73.4493 35.7531 74.1053 34.9652 74.1861C30.4256 74.6444 27.2917 75.7497 25.68 76.819Z" fill="url(#paint0_linear)" stroke="url(#paint1_linear)" stroke-width="0.25" stroke-miterlimit="10"/>
<path d="M77.3525 56.7182H1.63853C0.79687 56.7182 0.107422 56.0352 0.107422 55.1816V13.4159C0.107422 11.7266 1.47736 10.3518 3.16069 10.3518H17.1287C17.9704 10.3518 18.6598 11.0347 18.6598 11.8883V24.9536C18.6598 25.7084 19.2687 26.3194 20.0208 26.3194H26.7631C27.6048 26.3194 28.2942 27.0023 28.2942 27.856V35.9701L35.5021 26.8945C35.7976 26.5261 36.2363 26.3194 36.7019 26.3194H62.3995C63.1516 26.3194 63.7605 25.7084 63.7605 24.9536V11.8793C63.7605 11.0347 64.441 10.3428 65.2916 10.3428H75.8213C77.5047 10.3428 78.8746 11.7176 78.8746 13.4069V55.1816C78.8746 56.0263 78.1941 56.7182 77.3525 56.7182ZM3.16965 53.645H75.8213V13.4069H66.8227V24.9446C66.8227 27.3887 64.8439 29.3835 62.4084 29.3835H37.4451L27.9629 41.3076C27.56 41.8198 26.8795 42.0085 26.2617 41.8018C25.6439 41.5862 25.2409 41.0021 25.2409 40.3551V29.3835H20.0298C17.5943 29.3835 15.6155 27.3977 15.6155 24.9446V13.4159H3.16965V53.645Z" fill="url(#paint2_linear)" stroke="url(#paint3_linear)" stroke-width="0.25" stroke-miterlimit="10"/>
<path d="M75.8301 64.2936H3.16948C1.48615 64.2936 0.116211 62.9188 0.116211 61.2295V55.1821C0.116211 54.3374 0.796705 53.6455 1.64732 53.6455H77.3613C78.2029 53.6455 78.8924 54.3284 78.8924 55.1821V61.2295C78.8834 62.9188 77.5135 64.2936 75.8301 64.2936ZM3.16948 56.7186V61.2295H75.8212V56.7186H3.16948Z" fill="url(#paint4_linear)" stroke="url(#paint5_linear)" stroke-width="0.25" stroke-miterlimit="10"/>
<path d="M26.7716 41.8829C26.6015 41.8829 26.4313 41.8559 26.2702 41.802C25.6524 41.5864 25.2494 41.0023 25.2494 40.3553V29.3837H20.0383C17.6028 29.3837 15.624 27.3979 15.624 24.9448V4.54715C15.624 2.10303 17.6028 0.117188 20.0383 0.117188H62.408C64.8434 0.117188 66.8223 2.10303 66.8223 4.54715V24.9448C66.8223 27.3889 64.8434 29.3837 62.408 29.3837H37.4446L27.9625 41.3078C27.667 41.6762 27.2282 41.8829 26.7716 41.8829ZM20.0293 3.18132C19.2772 3.18132 18.6683 3.79235 18.6683 4.54715V24.9448C18.6683 25.6996 19.2772 26.3106 20.0293 26.3106H26.7716C27.6133 26.3106 28.3027 26.9935 28.3027 27.8472V35.9613L35.5106 26.8857C35.806 26.5173 36.2448 26.3106 36.7104 26.3106H62.408C63.1601 26.3106 63.769 25.6996 63.769 24.9448V4.54715C63.769 3.79235 63.1601 3.18132 62.408 3.18132H20.0293Z" fill="url(#paint6_linear)" stroke="url(#paint7_linear)" stroke-width="0.25" stroke-miterlimit="10"/>
<defs>
<linearGradient id="paint0_linear" x1="21.3703" y1="70.5546" x2="56.9869" y2="70.5546" gradientUnits="userSpaceOnUse">
<stop stop-color="#019281"/>
<stop offset="1" stop-color="#2B156D"/>
</linearGradient>
<linearGradient id="paint1_linear" x1="21.2584" y1="70.5546" x2="57.0988" y2="70.5546" gradientUnits="userSpaceOnUse">
<stop stop-color="#009481"/>
<stop offset="1" stop-color="#2E1672"/>
</linearGradient>
<linearGradient id="paint2_linear" x1="0.111899" y1="33.53" x2="78.8788" y2="33.53" gradientUnits="userSpaceOnUse">
<stop stop-color="#019281"/>
<stop offset="1" stop-color="#2B156D"/>
</linearGradient>
<linearGradient id="paint3_linear" x1="-2.45584e-05" y1="33.53" x2="78.9907" y2="33.53" gradientUnits="userSpaceOnUse">
<stop stop-color="#009481"/>
<stop offset="1" stop-color="#2E1672"/>
</linearGradient>
<linearGradient id="paint4_linear" x1="0.115942" y1="58.9704" x2="78.8847" y2="58.9704" gradientUnits="userSpaceOnUse">
<stop stop-color="#019281"/>
<stop offset="1" stop-color="#2B156D"/>
</linearGradient>
<linearGradient id="paint5_linear" x1="0.00402503" y1="58.9704" x2="78.9966" y2="58.9704" gradientUnits="userSpaceOnUse">
<stop stop-color="#009481"/>
<stop offset="1" stop-color="#2E1672"/>
</linearGradient>
<linearGradient id="paint6_linear" x1="15.6118" y1="20.9976" x2="66.8185" y2="20.9976" gradientUnits="userSpaceOnUse">
<stop stop-color="#019281"/>
<stop offset="1" stop-color="#2B156D"/>
</linearGradient>
<linearGradient id="paint7_linear" x1="15.4999" y1="20.9976" x2="66.9304" y2="20.9976" gradientUnits="userSpaceOnUse">
<stop stop-color="#009481"/>
<stop offset="1" stop-color="#2E1672"/>
</linearGradient>
</defs>
</svg>
