<svg width="50" height="200" viewBox="0 0 50 200" fill="none" xmlns="http://www.w3.org/2000/svg">
<path d="M19.6978 15.4653C35.6983 8.22435 61.1099 16.4565 83.755 14.141C106.433 11.8827 126.377 -0.866168 143.266 1.1629C160.188 3.24911 174.043 20.1583 179.492 38.3333C184.929 56.5533 181.87 76.015 178.369 92.9911C174.81 110 170.776 124.467 163.381 137.064C155.974 149.706 145.218 160.433 131.52 173.123C117.821 185.812 101.16 200.361 85.3283 199.969C69.4964 199.576 54.494 184.242 46.3522 167.999C38.2105 151.757 36.8843 134.593 28.7285 117.864C20.5848 101.089 5.57853 84.6917 1.37613 65.1132C-2.87131 45.5226 3.68513 22.7513 19.6978 15.4653Z" fill="#009581"/>
</svg>
