<svg width="147" height="353" viewBox="0 0 147 353" fill="none" xmlns="http://www.w3.org/2000/svg">
<path d="M91.6566 210.87C91.87 188.34 69.0484 162.776 60.0397 134.997C50.9469 107.21 55.5829 77.1984 44.4555 58.4257C33.244 39.6439 6.2225 32.1383 -17.932 35.1543C-42.1332 38.2078 -63.3922 51.8759 -81.5048 64.7765C-99.6265 77.7612 -114.517 89.9875 -125.474 105.191C-136.477 120.431 -143.498 138.611 -151.299 161.261C-159.1 183.91 -167.549 211 -158.89 229.379C-150.23 247.759 -124.463 257.427 -101.182 258.572C-77.9013 259.718 -57.0693 252.386 -33.2098 253.296C-9.30375 254.168 17.7139 263.29 42.8702 258.085C68.0641 252.925 91.3966 233.438 91.6566 210.87Z" fill="#524184"/>
</svg>
